# xmcd CD database file
#
# Track frame offsets:
#	150
#	19877
#	37285
#	54984
#	65611
#	86361
#	97198
#	119570
#	132019
#
# Disc length: 1913 seconds
#
# Revision: 0
# Processed by: cddbd v1.4PL0 Copyright (c) Steve Scherf et al.
# Submitted via: CDex 1.50beta10
#
DISCID=7d077709
DTITLE=Amadeus Honzi - Love unplugged
DYEAR=1996
DGENRE=Jazz
TTITLE0=Love unplugged
TTITLE1=Oase der Nacht
TTITLE2=Du
TTITLE3=Sparefroh
TTITLE4=You don't know what love is
TTITLE5=Auf dem Felsen
TTITLE6=My Romance
TTITLE7=Sieben Lieben
TTITLE8=Die Liebe muass her!!
EXTD=YEAR: 1996
EXTT0=
EXTT1=
EXTT2=
EXTT3=
EXTT4=
EXTT5=
EXTT6=
EXTT7=
EXTT8=
PLAYORDER=
